<svg width="108" height="19" viewBox="0 0 108 19" fill="none" xmlns="http://www.w3.org/2000/svg">
<path d="M5.57758 1.968C4.56958 2 3.79358 2.384 3.24958 3.12C2.72158 3.856 2.45758 5.128 2.45758 6.936C2.45758 7.528 2.51358 7.944 2.62558 8.184C2.73758 8.408 2.79358 8.536 2.79358 8.568C1.92958 8.568 1.28158 8.392 0.849583 8.04C0.433583 7.672 0.225583 7.072 0.225583 6.24C0.225583 5.104 0.505583 4.072 1.06558 3.144C1.62558 2.2 2.51358 1.44 3.72958 0.863999C4.96158 0.287999 6.52158 -1.43051e-06 8.40958 -1.43051e-06C8.79358 -1.43051e-06 9.30558 0.0399985 9.94558 0.119998C11.0976 0.231999 11.9136 0.287999 12.3936 0.287999C13.2416 0.287999 13.9616 0.191999 14.5536 -1.43051e-06C14.5056 0.143999 14.4176 0.463999 14.2896 0.959999C14.1616 1.44 13.9296 1.856 13.5936 2.208C13.2736 2.544 12.8336 2.768 12.2736 2.88C11.3296 2.88 10.2096 2.728 8.91358 2.424L7.90558 7.2H11.4096L11.0256 8.976H7.52158L5.57758 18H2.12158L5.57758 1.968ZM14.5292 18.096C13.3452 18.096 12.4092 17.792 11.7212 17.184C11.0332 16.576 10.6892 15.616 10.6892 14.304C10.6892 13.216 10.9132 12.008 11.3612 10.68C11.8092 9.352 12.5292 8.208 13.5212 7.248C14.5132 6.272 15.7612 5.784 17.2652 5.784C19.3132 5.784 20.3372 7.064 20.3372 9.624V9.648C20.3852 9.664 20.4732 9.672 20.6012 9.672C21.1292 9.672 21.7372 9.536 22.4252 9.264C23.1132 8.976 23.7372 8.632 24.2972 8.232L24.5132 8.88C24.0492 9.376 23.4412 9.8 22.6892 10.152C21.9532 10.488 21.1452 10.728 20.2652 10.872C20.1372 12.328 19.8092 13.6 19.2812 14.688C18.7532 15.776 18.0732 16.616 17.2412 17.208C16.4092 17.8 15.5052 18.096 14.5292 18.096ZM15.4892 15.936C15.8732 15.936 16.2572 15.72 16.6412 15.288C17.0252 14.84 17.3612 14.24 17.6492 13.488C17.9372 12.72 18.1452 11.872 18.2732 10.944C17.8412 10.848 17.6252 10.512 17.6252 9.936C17.6252 9.28 17.8732 8.848 18.3692 8.64C18.3372 8.112 18.2572 7.752 18.1292 7.56C18.0012 7.352 17.7772 7.248 17.4572 7.248C16.9292 7.248 16.4172 7.632 15.9212 8.4C15.4252 9.168 15.0252 10.088 14.7212 11.16C14.4172 12.232 14.2652 13.176 14.2652 13.992C14.2652 14.76 14.3532 15.28 14.5292 15.552C14.7052 15.808 15.0252 15.936 15.4892 15.936ZM25.0761 18.096C23.8921 18.096 22.9561 17.792 22.2681 17.184C21.5801 16.576 21.2361 15.616 21.2361 14.304C21.2361 13.216 21.4601 12.008 21.9081 10.68C22.3561 9.352 23.0761 8.208 24.0681 7.248C25.0601 6.272 26.3081 5.784 27.8121 5.784C29.8601 5.784 30.8841 7.064 30.8841 9.624V9.648C30.9321 9.664 31.0201 9.672 31.1481 9.672C31.6761 9.672 32.2841 9.536 32.9721 9.264C33.6601 8.976 34.2841 8.632 34.8441 8.232L35.0601 8.88C34.5961 9.376 33.9881 9.8 33.2361 10.152C32.5001 10.488 31.6921 10.728 30.8121 10.872C30.6841 12.328 30.3561 13.6 29.8281 14.688C29.3001 15.776 28.6201 16.616 27.7881 17.208C26.9561 17.8 26.0521 18.096 25.0761 18.096ZM26.0361 15.936C26.4201 15.936 26.8041 15.72 27.1881 15.288C27.5721 14.84 27.9081 14.24 28.1961 13.488C28.4841 12.72 28.6921 11.872 28.8201 10.944C28.3881 10.848 28.1721 10.512 28.1721 9.936C28.1721 9.28 28.4201 8.848 28.9161 8.64C28.8841 8.112 28.8041 7.752 28.6761 7.56C28.5481 7.352 28.3241 7.248 28.0041 7.248C27.4761 7.248 26.9641 7.632 26.4681 8.4C25.9721 9.168 25.5721 10.088 25.2681 11.16C24.9641 12.232 24.8121 13.176 24.8121 13.992C24.8121 14.76 24.9001 15.28 25.0761 15.552C25.2521 15.808 25.5721 15.936 26.0361 15.936ZM34.999 18.144C34.087 18.144 33.327 17.832 32.719 17.208C32.111 16.584 31.807 15.608 31.807 14.28C31.807 13.096 32.039 11.856 32.503 10.56C32.983 9.248 33.687 8.144 34.615 7.248C35.559 6.336 36.679 5.88 37.975 5.88C38.631 5.88 39.119 5.992 39.439 6.216C39.759 6.44 39.919 6.736 39.919 7.104V7.2L41.095 1.68L44.647 1.2L41.887 14.16C41.823 14.4 41.791 14.656 41.791 14.928C41.791 15.248 41.863 15.48 42.007 15.624C42.167 15.752 42.423 15.816 42.775 15.816C43.223 15.816 43.607 15.624 43.927 15.24C44.263 14.856 44.527 14.344 44.719 13.704H45.727C44.751 16.568 43.143 18 40.903 18C40.247 18 39.711 17.824 39.295 17.472C38.895 17.12 38.647 16.608 38.551 15.936C38.135 16.576 37.631 17.104 37.039 17.52C36.463 17.936 35.783 18.144 34.999 18.144ZM36.559 15.816C36.943 15.816 37.327 15.64 37.711 15.288C38.111 14.936 38.383 14.448 38.527 13.824V13.704L39.703 8.208C39.559 7.648 39.231 7.368 38.719 7.368C38.079 7.368 37.503 7.744 36.991 8.496C36.479 9.232 36.079 10.128 35.791 11.184C35.503 12.224 35.359 13.144 35.359 13.944C35.359 14.744 35.471 15.256 35.695 15.48C35.935 15.704 36.223 15.816 36.559 15.816ZM48.7363 4.704C48.2083 4.704 47.7603 4.52 47.3923 4.152C47.0243 3.784 46.8403 3.336 46.8403 2.808C46.8403 2.28 47.0243 1.832 47.3923 1.464C47.7603 1.08 48.2083 0.887999 48.7363 0.887999C49.2643 0.887999 49.7123 1.08 50.0803 1.464C50.4643 1.832 50.6563 2.28 50.6563 2.808C50.6563 3.336 50.4643 3.784 50.0803 4.152C49.7123 4.52 49.2643 4.704 48.7363 4.704ZM47.1043 18.144C46.3363 18.144 45.7123 17.904 45.2323 17.424C44.7683 16.944 44.5363 16.224 44.5363 15.264C44.5363 14.864 44.6003 14.344 44.7283 13.704L46.3603 6H49.8163L48.0883 14.16C48.0243 14.4 47.9923 14.656 47.9923 14.928C47.9923 15.248 48.0643 15.48 48.2083 15.624C48.3683 15.752 48.6243 15.816 48.9763 15.816C49.4403 15.816 49.8723 15.624 50.2723 15.24C50.6723 14.84 50.9603 14.328 51.1363 13.704H52.1443C51.5523 15.432 50.7923 16.608 49.8643 17.232C48.9363 17.84 48.0163 18.144 47.1043 18.144ZM54.5588 18.144C53.3748 18.144 52.4548 17.84 51.7988 17.232C51.1428 16.608 50.8148 15.64 50.8148 14.328C50.8148 13.224 51.0308 12.008 51.4628 10.68C51.8948 9.352 52.5988 8.208 53.5748 7.248C54.5508 6.272 55.7908 5.784 57.2948 5.784C59.0548 5.784 59.9348 6.552 59.9348 8.088C59.9348 8.984 59.6788 9.808 59.1668 10.56C58.6548 11.312 57.9748 11.92 57.1268 12.384C56.2788 12.832 55.3748 13.088 54.4148 13.152C54.3828 13.632 54.3668 13.952 54.3668 14.112C54.3668 14.896 54.5028 15.432 54.7748 15.72C55.0468 15.992 55.4868 16.128 56.0948 16.128C56.9588 16.128 57.6948 15.928 58.3028 15.528C58.9268 15.128 59.6068 14.52 60.3428 13.704H61.1588C59.3828 16.664 57.1828 18.144 54.5588 18.144ZM54.6068 12C55.1988 11.968 55.7588 11.76 56.2868 11.376C56.8308 10.992 57.2628 10.504 57.5828 9.912C57.9188 9.32 58.0868 8.696 58.0868 8.04C58.0868 7.384 57.8868 7.056 57.4868 7.056C56.9108 7.056 56.3428 7.56 55.7828 8.568C55.2388 9.576 54.8468 10.72 54.6068 12ZM62.7137 18.144C61.9457 18.144 61.3217 17.904 60.8417 17.424C60.3777 16.944 60.1457 16.224 60.1457 15.264C60.1457 14.864 60.2097 14.344 60.3377 13.704L62.9057 1.68L66.4577 1.2L63.6977 14.16C63.6337 14.4 63.6017 14.656 63.6017 14.928C63.6017 15.248 63.6737 15.48 63.8177 15.624C63.9777 15.752 64.2337 15.816 64.5857 15.816C65.0497 15.816 65.4817 15.624 65.8817 15.24C66.2817 14.84 66.5697 14.328 66.7457 13.704H67.7537C67.1617 15.432 66.4017 16.608 65.4737 17.232C64.5457 17.84 63.6257 18.144 62.7137 18.144ZM69.6161 18.144C68.7041 18.144 67.9441 17.832 67.3361 17.208C66.7281 16.584 66.4241 15.608 66.4241 14.28C66.4241 13.096 66.6561 11.856 67.1201 10.56C67.6001 9.248 68.3041 8.144 69.2321 7.248C70.1761 6.336 71.2961 5.88 72.5921 5.88C73.2481 5.88 73.7361 5.992 74.0561 6.216C74.3761 6.44 74.5361 6.736 74.5361 7.104V7.272L74.8001 6H78.2561L76.5281 14.16C76.4641 14.4 76.4321 14.656 76.4321 14.928C76.4321 15.616 76.7601 15.96 77.4161 15.96C77.8641 15.96 78.2481 15.752 78.5681 15.336C78.9041 14.92 79.1681 14.376 79.3601 13.704H80.3681C79.7761 15.432 79.0401 16.608 78.1601 17.232C77.2961 17.84 76.4241 18.144 75.5441 18.144C74.8721 18.144 74.3281 17.96 73.9121 17.592C73.5121 17.208 73.2721 16.656 73.1921 15.936C72.7281 16.592 72.2081 17.128 71.6321 17.544C71.0721 17.944 70.4001 18.144 69.6161 18.144ZM71.1761 15.816C71.5761 15.816 71.9681 15.632 72.3521 15.264C72.7521 14.88 73.0241 14.36 73.1681 13.704L74.3201 8.28C74.3201 8.072 74.2401 7.872 74.0801 7.68C73.9201 7.472 73.6721 7.368 73.3361 7.368C72.6961 7.368 72.1201 7.744 71.6081 8.496C71.0961 9.232 70.6961 10.128 70.4081 11.184C70.1201 12.224 69.9761 13.144 69.9761 13.944C69.9761 14.744 70.0881 15.256 70.3121 15.48C70.5521 15.704 70.8401 15.816 71.1761 15.816ZM88.033 18.144C87.057 18.144 86.337 17.888 85.873 17.376C85.425 16.848 85.201 16.2 85.201 15.432C85.201 15.096 85.241 14.72 85.321 14.304C85.401 13.872 85.481 13.456 85.561 13.056C85.657 12.656 85.721 12.4 85.753 12.288C85.881 11.728 86.001 11.176 86.113 10.632C86.225 10.088 86.281 9.648 86.281 9.312C86.281 8.496 85.993 8.088 85.417 8.088C85.001 8.088 84.633 8.296 84.313 8.712C83.993 9.112 83.737 9.64 83.545 10.296L81.913 18H78.457L81.001 6H84.457L84.193 7.248C84.993 6.352 85.929 5.904 87.001 5.904C87.817 5.904 88.465 6.128 88.945 6.576C89.425 7.024 89.665 7.704 89.665 8.616C89.665 9.08 89.609 9.6 89.497 10.176C89.385 10.736 89.225 11.424 89.017 12.24C88.889 12.736 88.769 13.224 88.657 13.704C88.561 14.168 88.513 14.536 88.513 14.808C88.513 15.128 88.585 15.376 88.729 15.552C88.873 15.728 89.121 15.816 89.473 15.816C89.953 15.816 90.337 15.648 90.625 15.312C90.913 14.96 91.201 14.424 91.489 13.704H92.497C91.905 15.464 91.217 16.648 90.433 17.256C89.665 17.848 88.865 18.144 88.033 18.144ZM94.3661 18.144C93.4541 18.144 92.6941 17.832 92.0861 17.208C91.4781 16.584 91.1741 15.608 91.1741 14.28C91.1741 13.096 91.4061 11.856 91.8701 10.56C92.3501 9.248 93.0541 8.144 93.9821 7.248C94.9261 6.336 96.0461 5.88 97.3421 5.88C97.9981 5.88 98.4861 5.992 98.8061 6.216C99.1261 6.44 99.2861 6.736 99.2861 7.104V7.2L100.462 1.68L104.014 1.2L101.254 14.16C101.19 14.4 101.158 14.632 101.158 14.856C101.158 15.496 101.486 15.816 102.142 15.816C102.43 15.816 102.686 15.768 102.91 15.672C102.846 16.472 102.558 17.088 102.046 17.52C101.55 17.936 100.958 18.144 100.27 18.144C99.6301 18.144 99.0861 17.984 98.6381 17.664C98.2061 17.328 97.9181 16.824 97.7741 16.152C96.8141 17.48 95.6781 18.144 94.3661 18.144ZM95.9261 15.816C96.2781 15.816 96.6301 15.664 96.9821 15.36C97.3501 15.056 97.6221 14.632 97.7981 14.088L97.8941 13.704L99.0701 8.208C98.9261 7.648 98.5981 7.368 98.0861 7.368C97.4461 7.368 96.8701 7.744 96.3581 8.496C95.8461 9.232 95.4461 10.128 95.1581 11.184C94.8701 12.224 94.7261 13.144 94.7261 13.944C94.7261 14.744 94.8381 15.256 95.0621 15.48C95.3021 15.704 95.5901 15.816 95.9261 15.816Z" fill="black"/>
<path d="M105.54 18.096C105.012 18.096 104.564 17.912 104.196 17.544C103.828 17.176 103.644 16.728 103.644 16.2C103.644 15.672 103.828 15.224 104.196 14.856C104.564 14.472 105.012 14.28 105.54 14.28C106.068 14.28 106.516 14.472 106.884 14.856C107.268 15.224 107.46 15.672 107.46 16.2C107.46 16.728 107.268 17.176 106.884 17.544C106.516 17.912 106.068 18.096 105.54 18.096Z" fill="#FF7426"/>
</svg>
